# xmcd
#
# Track frame offsets:
# 150
# 19365
# 32452
# 50082
# 67315
# 85732
# 100187
# 120270
# 131687
# 147882
#
# Disc length: 2187 seconds
#
#
# Revision: 0
# Processed by: cddbd v1.5.1PL0 Copyright (c) Steve Scherf et al.
# Submitted via: FreeRIP 2.931 
#
DISCID=8808890a
DTITLE=Dallas Moore - One More Ride
DYEAR=1998
DGENRE=Country
TTITLE0=Tonight I Own The Wind
TTITLE1=One Of Us
TTITLE2=Bad Checks
TTITLE3=Every Sad Song On The Jukebox
TTITLE4=Lessons I've Learned
TTITLE5=Just What I need Tonight
TTITLE6=One More Ride
TTITLE7=Black Rose
TTITLE8=Ballad Of Someone You Know
TTITLE9=I'd Do It All Again For You
EXTD=
EXTT0=
EXTT1=
EXTT2=
EXTT3=
EXTT4=
EXTT5=
EXTT6=
EXTT7=
EXTT8=
EXTT9=
PLAYORDER=
